<svg t="1628650569223" class="icon" viewBox="0 0 1024 1024" version="1.1" xmlns="http://www.w3.org/2000/svg" p-id="13815" width="16" height="16"><path d="M512 426.666667a42.666667 42.666667 0 0 1-42.666667-42.666667V85.333333H213.333333v853.333334h682.666667v42.666666a42.666667 42.666667 0 0 1-42.666667 42.666667H170.666667a42.666667 42.666667 0 0 1-42.666667-42.666667V42.666667a42.666667 42.666667 0 0 1 42.666667-42.666667h354.56v0.256l1.536 0.085333a85.333333 85.333333 0 0 1 52.864 24.661334l291.413333 291.413333A85.333333 85.333333 0 0 1 896 376.746667V426.666667h-384z m289.621333 110.506666l2.816 2.389334 128 128a21.333333 21.333333 0 0 1 2.432 27.221333l-2.432 2.986667-128 128a21.333333 21.333333 0 0 1-36.138666-11.434667L768 810.666667v-85.333334h-277.333333a21.333333 21.333333 0 0 1-21.333334-21.333333v-42.666667a21.333333 21.333333 0 0 1 21.333334-21.333333H768v-85.333333a21.333333 21.333333 0 0 1 33.621333-17.493334zM554.666667 120.746667V341.333333h220.586666L554.666667 120.746667z" p-id="13816" fill="#d4237a"></path></svg>