<?xml version="1.0" standalone="no"?><!DOCTYPE svg PUBLIC "-//W3C//DTD SVG 1.1//EN" "http://www.w3.org/Graphics/SVG/1.1/DTD/svg11.dtd"><svg t="1628158566919" class="icon" viewBox="0 0 1024 1024" version="1.1" xmlns="http://www.w3.org/2000/svg" p-id="2055" width="16" height="16" xmlns:xlink="http://www.w3.org/1999/xlink"><defs><style type="text/css"></style></defs><path d="M818.176 314.368c-26.624-52.224-94.208-149.504-220.16-92.16-77.824 35.84-121.856 56.32-121.856 56.32l-112.64 49.152c-31.744 15.36-101.376-6.144-140.288-20.48-11.264-4.096-21.504 8.192-16.384 19.456 26.624 52.224 94.208 149.504 220.16 92.16 77.824-35.84 234.496-103.424 234.496-103.424 31.744-15.36 101.376 6.144 140.288 20.48 11.264 2.048 21.504-9.216 16.384-21.504zM547.84 479.232c-14.336 8.192-70.656 33.792-70.656 33.792l-56.32 24.576C393.216 552.96 332.8 532.48 296.96 518.144c-10.24-5.12-19.456 8.192-14.336 18.432 22.528 51.2 82.944 143.36 193.536 87.04 68.608-34.816 126.976-57.344 126.976-57.344 27.648-15.36 88.064 5.12 123.904 19.456 10.24 4.096 19.456-8.192 14.336-19.456-23.552-51.2-83.968-143.36-193.536-87.04z m-40.96 226.304c-11.264 6.144-30.72 18.432-30.72 18.432-21.504 13.312-66.56-4.096-93.184-17.408-7.168-4.096-14.336 8.192-10.24 18.432 16.384 46.08 61.44 129.024 144.384 77.824 30.72-19.456 30.72-18.432 30.72-18.432 22.528-11.264 66.56 4.096 93.184 16.384 7.168 4.096 14.336-8.192 10.24-18.432-16.384-45.056-58.368-123.904-144.384-76.8z" p-id="2056" fill="#1afa29"></path></svg>