<svg t="1628578349633" class="icon" viewBox="0 0 1024 1024" version="1.1" xmlns="http://www.w3.org/2000/svg" p-id="5950" width="16" height="16"><path d="M670.9 158.1H352.8c-3.5 0-6.4 2.8-6.4 6.4v49.7H161v326h185.4v50.3c0 3.5 2.8 6.4 6.4 6.4h318.1c3.5 0 6.4-2.8 6.4-6.4V433.4c0-3.5-2.8-6.4-6.4-6.4H352.8c-3.5 0-6.4 2.8-6.4 6.4v49.1H218.6V271.9h127.8v49.7c0 3.5 2.8 6.4 6.4 6.4h318.1c3.5 0 6.4-2.8 6.4-6.4V164.5c-0.1-3.5-2.9-6.4-6.4-6.4z m-260.5 333h202.7v41.7H410.4v-41.7z m202.8-227.2H410.4v-41.7h202.7v41.7zM670.9 694.3H352.8c-3.5 0-6.4 2.8-6.4 6.4v157.1c0 3.5 2.8 6.4 6.4 6.4h318.1c3.5 0 6.4-2.8 6.4-6.4V700.7c-0.1-3.5-2.9-6.4-6.4-6.4z m-57.7 105.8H410.4v-41.7h202.7v41.7z" fill="#d81e06" p-id="5951"></path><path d="M677.2 482.1v57.6H805v210.7H677.2v57.7h185.4v-326z" fill="#d81e06" p-id="5952"></path></svg>