<svg t="1628651115317" class="icon" viewBox="0 0 1024 1024" version="1.1" xmlns="http://www.w3.org/2000/svg" p-id="14263" width="16" height="16"><path d="M559.36 688a220.8 220.8 0 0 1-158.72-64 229.76 229.76 0 0 1-57.6-96.64 32.64 32.64 0 0 1 22.4-39.68 32 32 0 0 1 39.68 22.4A158.08 158.08 0 0 0 448 576a165.12 165.12 0 0 0 227.84 0l228.48-229.12a160.64 160.64 0 0 0 0-227.2 164.48 164.48 0 0 0-227.2 0L519.04 275.84a30.72 30.72 0 0 1-44.8 0 32 32 0 0 1 0-45.44l154.88-154.88a229.76 229.76 0 0 1 320 0 225.28 225.28 0 0 1 0 320l-231.04 226.56a220.8 220.8 0 0 1-158.72 65.92z" fill="#1296db" p-id="14264"></path><path d="M241.28 1006.08a224.64 224.64 0 0 1-159.36-384l229.12-228.48a229.76 229.76 0 0 1 320 0 222.08 222.08 0 0 1 56.96 96.64 32 32 0 1 1-64 17.92 160.64 160.64 0 0 0-267.52-69.12L128 668.16A160.64 160.64 0 0 0 354.56 896L512 739.84a32 32 0 1 1 45.44 45.44L400 940.8a224 224 0 0 1-158.72 65.28z" fill="#1296db" p-id="14265"></path></svg>